<svg id="Слой_1" data-name="Слой 1" xmlns="http://www.w3.org/2000/svg" viewBox="0 0 299.25 443.82"><defs><style>.cls-1,.cls-3{fill:#010101;}.cls-1{stroke:#0d0e0e;}.cls-2{font-size:75px;fill:#231f20;font-family:SegoeUI-Semilight, Segoe UI;font-weight:300;}.cls-3{stroke:#090809;}</style></defs><path class="cls-1" d="M351.4,272.55l44.33-63.67,51.34-59.66s59.47-59.84,81.66-66.34c23.31-7,53.34-18,42.34,49s-42.33,115.67-39.67,112-15,28.67-15,28.67h-3.33s51.66-117,44.66-142.67c0,0-7-65.33-85,31,0,0-35.33,39.67-37.33,42.34s-45.67,56.33-52,69C383.07,273.22,351.4,272.55,351.4,272.55Z" transform="translate(-274.66 -77.08)"/><text class="cls-2" transform="translate(20.16 236.63) scale(1.08 1)">generis</text><path class="cls-3" d="M333,323.77l30-1s-97,197,30,94c43.5-45,64.5-74.5,64.5-75l5.5-15.5-17-.5,2-6,93.5-.5-1.5,7.5s-30.5-6-68.5,41-67.5,80.5-73.5,86.5-52.5,54-75.5,60-63.5,27.5-40.5-72.5C303.5,371.27,324.5,342.77,333,323.77Z" transform="translate(-274.66 -77.08)"/></svg>